<svg width="70" height="76" viewBox="0 0 70 76" fill="none" xmlns="http://www.w3.org/2000/svg">
<path d="M0 10C0 4.47715 4.47715 0 10 0H60C65.5229 0 70 4.47715 70 10V66C70 71.5229 65.5229 76 60 76H10C4.47715 76 0 71.5229 0 66V10Z" fill="#23A6F0"/>
<path d="M37.4269 51.3337H32.5736C31.947 51.3337 31.405 50.8977 31.2709 50.2857L30.7282 47.7737C30.0043 47.4565 29.3179 47.0598 28.6816 46.591L26.2322 47.371C25.6349 47.5615 24.9855 47.3101 24.6722 46.767L22.2402 42.5657C21.9303 42.0223 22.0371 41.337 22.4976 40.9137L24.3976 39.1803C24.3111 38.3951 24.3111 37.6028 24.3976 36.8177L22.4976 35.0883C22.0364 34.6648 21.9296 33.9786 22.2402 33.435L24.6669 29.231C24.9802 28.6879 25.6296 28.4365 26.2269 28.627L28.6762 29.407C29.0016 29.1659 29.3404 28.9433 29.6909 28.7403C30.0273 28.5506 30.3736 28.3788 30.7282 28.2257L31.2722 25.7163C31.4056 25.1043 31.9471 24.6677 32.5736 24.667H37.4269C38.0533 24.6677 38.5948 25.1043 38.7282 25.7163L39.2775 28.227C39.6519 28.3917 40.0165 28.5778 40.3696 28.7843C40.6993 28.9747 41.018 29.1835 41.3242 29.4097L43.7749 28.6297C44.3718 28.4399 45.0204 28.6912 45.3336 29.2337L47.7602 33.4377C48.0701 33.981 47.9633 34.6663 47.5029 35.0897L45.6029 36.823C45.6893 37.6082 45.6893 38.4005 45.6029 39.1857L47.5029 40.919C47.9633 41.3423 48.0701 42.0277 47.7602 42.571L45.3336 46.775C45.0204 47.3174 44.3718 47.5688 43.7749 47.379L41.3242 46.599C41.0141 46.8274 40.6919 47.0388 40.3589 47.2323C40.0093 47.4349 39.6488 47.6178 39.2789 47.7803L38.7282 50.2857C38.5943 50.8972 38.0529 51.3331 37.4269 51.3337ZM34.9949 32.667C32.0494 32.667 29.6616 35.0548 29.6616 38.0003C29.6616 40.9458 32.0494 43.3337 34.9949 43.3337C37.9404 43.3337 40.3282 40.9458 40.3282 38.0003C40.3282 35.0548 37.9404 32.667 34.9949 32.667Z" fill="white"/>
</svg>
