<svg width="70" height="76" viewBox="0 0 70 76" fill="none" xmlns="http://www.w3.org/2000/svg">
<path d="M0 10C0 4.47715 4.47715 0 10 0H60C65.5229 0 70 4.47715 70 10V66C70 71.5229 65.5229 76 60 76H10C4.47715 76 0 71.5229 0 66V10Z" fill="#23A6F0"/>
<path d="M45.667 48.6663H24.3337C22.8609 48.6663 21.667 47.4724 21.667 45.9997V29.9997C21.667 28.5269 22.8609 27.333 24.3337 27.333H45.667C47.1398 27.333 48.3337 28.5269 48.3337 29.9997V45.9997C48.3337 47.4724 47.1398 48.6663 45.667 48.6663ZM24.3337 37.9997V45.9997H45.667V37.9997H24.3337ZM24.3337 29.9997V32.6663H45.667V29.9997H24.3337ZM36.3337 43.333H27.0003V40.6663H36.3337V43.333Z" fill="white"/>
</svg>
